<svg id="logo" xmlns="http://www.w3.org/2000/svg" width="842" height="250" viewBox="0 0 842 250">
  <metadata><?xpacket begin="﻿" id="W5M0MpCehiHzreSzNTczkc9d"?>
<x:xmpmeta xmlns:x="adobe:ns:meta/" x:xmptk="Adobe XMP Core 5.6-c138 79.159824, 2016/09/14-01:09:01        ">
   <rdf:RDF xmlns:rdf="http://www.w3.org/1999/02/22-rdf-syntax-ns#">
      <rdf:Description rdf:about=""/>
   </rdf:RDF>
</x:xmpmeta>
                                                                                                    
                                                                                                    
                                                                                                    
                                                                                                    
                                                                                                    
                                                                                                    
                                                                                                    
                                                                                                    
                                                                                                    
                                                                                                    
                                                                                                    
                                                                                                    
                                                                                                    
                                                                                                    
                                                                                                    
                                                                                                    
                                                                                                    
                                                                                                    
                                                                                                    
                                                                                                    
                           
<?xpacket end="w"?></metadata>
<defs>
    <style>
      .cls-1, .cls-3 {
        fill-rule: evenodd;
      }

      .cls-2 {
        fill: #de444a;
      }

      .cls-3 {
        fill: #fff;
      }
    </style>
  </defs>
  <path id="PEHA" class="cls-1" d="M101.911,79.334A188.277,188.277,0,0,0,78.993,82.3V226.944h33.1V177.811h10.4q33.1,0,50.929-11.753t17.825-38.227q0-26.256-17.613-37.8t-50.5-11.542Q114,78.487,101.911,79.334Zm36.5,28.272A28.775,28.775,0,0,1,148.49,111a16.943,16.943,0,0,1,6.366,6.459,20.815,20.815,0,0,1,2.228,10.166q0,12.707-8.7,17.366T122.5,149.645H112.1V107.289q2.547-.209,6.048-0.424t7.109-.212A83.48,83.48,0,0,1,138.41,107.606ZM319.844,226.944V199.2H248.755V163.834h58.781V136.726H248.755v-28.8h66.208V80.181H215.652V226.944H319.844Zm113.1-90.641h-55.6V80.181h-33.1V226.944h33.1V164.681h55.6v62.263h33.1V80.181h-33.1V136.3Zm201.168,90.641q-8.316-23.715-15.776-43.838t-14.6-37.909q-7.143-17.789-14.178-33.779T575.273,80.181h-31.38q-7.45,15.248-14.37,31.237T515.475,145.2q-7.132,17.79-14.579,37.909t-15.75,43.838h34.377q2.412-7.594,5.212-15.668t5.584-16.1h57.434q2.8,7.992,5.627,16.056t5.278,15.711h35.455ZM562.355,122.05q2.148,5.5,5,12.711t6.011,15.913q3.163,8.7,6.539,18.243H537.849q3.477-9.516,6.843-18.187t6.1-15.883q2.726-7.212,4.857-12.717t3.243-8.7Q560.206,116.558,562.355,122.05Z" transform="translate(-79 -25)"/>
  <circle id="outter" class="cls-2" cx="717.453" cy="125" r="124.547"/>
  <path id="inner" class="cls-3" d="M739.911,78.094C754.518,76.126,780.693,109.856,788,114c1.492,0.846,14.9,6.384,20,2s39.441-42.919,46.06-32.893C866.086,101.321,841.6,132.246,842,144s17.718,44.717,12,55c-8.385,15.077-44.888,30.359-62,30-18.45-.387-52.3-16.387-57-33-3.984-14.07,12.656-40.16,18-53C760.056,126.047,721.212,80.614,739.911,78.094Z" transform="translate(-79 -25)"/>
</svg>
