<svg xmlns="http://www.w3.org/2000/svg" viewBox="2015.153 2475.006 40.088 40.088">
  <defs>
    <style>
      .cls-1 {
        fill: #de444a;
      }

      .cls-2 {
        fill: #fff;
        fill-rule: evenodd;
      }
    </style>
  </defs>
  <g id="logo-white" transform="translate(1854.983 2449.553)">
    <circle id="outter" class="cls-1" cx="20.044" cy="20.044" r="20.044" transform="translate(160.17 25.453)"/>
    <path id="inner" class="cls-2" d="M735.279,78.025c2.351-.317,6.563,5.112,7.739,5.779.24.136,2.4,1.027,3.219.322s6.347-6.907,7.413-5.294c1.935,2.931-2.005,7.908-1.941,9.8s2.851,7.2,1.931,8.851c-1.349,2.426-7.224,4.886-9.978,4.828-2.969-.062-8.417-2.637-9.173-5.311-.641-2.264,2.037-6.463,2.9-8.53C738.521,85.742,732.269,78.43,735.279,78.025Z" transform="translate(-564.164 -44.1)"/>
  </g>
</svg>
